<svg width="840" height="200" viewBox="0 0 840 200" fill="none" xmlns="http://www.w3.org/2000/svg">
<path d="M120.037 192H174.034C176.58 192 177.853 192 178.852 191.344C179.852 190.689 180.359 189.521 181.372 187.185L198.677 147.308C199.33 145.805 199.656 145.053 199.669 144.256C199.681 143.458 199.379 142.696 198.774 141.173L185.799 108.472C184.59 105.427 183.986 103.905 182.676 103.216C181.365 102.527 179.768 102.893 176.576 103.625L95.3612 122.237C91.0462 123.226 88.8887 123.72 88.0396 125.383C87.1905 127.045 88.0548 129.083 89.7834 133.159L112.673 187.124C113.675 189.488 114.177 190.67 115.181 191.335C116.185 192 117.469 192 120.037 192Z" fill="currentColor"/>
<path d="M0.796631 169.103V186C0.796631 188.828 0.796631 190.243 1.67531 191.121C2.55399 192 3.9682 192 6.79662 192H86.6019C90.6785 192 92.7167 192 93.6071 190.662C94.4975 189.324 93.7106 187.444 92.1368 183.684L74.8482 142.375C74.1009 140.589 73.7272 139.696 72.9721 139.194C72.217 138.691 71.2492 138.691 69.3134 138.691H25.9712C24.5638 138.691 23.86 138.691 23.247 138.984C22.634 139.276 22.1915 139.824 21.3063 140.918L2.57678 164.072C1.69545 165.162 1.25479 165.706 1.02571 166.354C0.796631 167.001 0.796631 167.702 0.796631 169.103Z" fill="currentColor"/>
<path d="M98.7907 93.1999L83.9694 18.5582C83.0912 14.1353 82.6521 11.9239 83.8523 10.462C85.0524 9.00006 87.307 9.00006 91.8162 9.00006H162.256C164.35 9.00006 165.397 9.00006 166.281 9.47273C167.165 9.94539 167.746 10.8163 168.909 12.558L186.733 39.2543C187.771 40.809 188.29 41.5864 188.42 42.4794C188.55 43.3724 188.275 44.2657 187.724 46.0522L177.452 79.3904C176.79 81.5385 176.459 82.6125 175.676 83.3409C174.894 84.0693 173.799 84.3225 171.609 84.8289L108.44 99.4362C104.659 100.31 102.769 100.747 101.347 99.8282C99.9243 98.909 99.5464 97.006 98.7907 93.1999Z" fill="currentColor"/>
<path d="M0.796631 84.0121V17C0.796631 13.2288 0.796631 11.3431 1.9682 10.1716C3.13978 9 5.0254 9 8.79663 9H57.8454C61.0462 9 62.6467 9 63.7609 9.9327C64.8752 10.8654 65.157 12.4408 65.7205 15.5917L79.5721 93.0479C80.012 95.5076 80.2319 96.7374 79.7801 97.8224C79.3282 98.9074 78.3004 99.6176 76.2446 101.038L46.3585 121.688L46.3584 121.688C43.8081 123.45 42.5329 124.331 41.1219 124.224C39.7109 124.118 38.5826 123.055 36.3259 120.929L3.31171 89.8359C2.07208 88.6683 1.45227 88.0846 1.12445 87.3255C0.796631 86.5664 0.796631 85.715 0.796631 84.0121Z" fill="currentColor"/>
<path d="M839.947 142.614V159.559C834.932 161.979 829.572 163.363 822.31 163.363C801.388 163.363 792.916 152.297 792.916 130.856V82.0966H770.784V64.806H793.089V40.0803L812.627 28.3227V64.806H839.947V82.0966H812.627V128.436C812.627 140.885 817.642 145.38 827.151 145.38C832.339 145.38 835.451 144.516 839.947 142.614Z" fill="currentColor"/>
<path d="M753.108 24V161.634H732.187V24H753.108Z" fill="currentColor"/>
<path d="M612.492 139.156C612.492 128.09 617.334 121.692 624.769 117.024C631.685 112.701 640.676 110.28 657.275 106.822C674.566 103.191 680.444 100.252 680.444 92.9897C680.444 85.7276 675.084 79.503 660.56 79.503C646.382 79.503 638.082 86.5921 633.587 99.2143L614.74 93.1626C622.867 73.1054 639.984 62.9039 661.425 62.9039C685.632 62.9039 700.502 74.8345 700.502 97.4852V134.141C700.502 143.997 703.614 146.936 710.184 146.936C712.778 146.936 715.026 146.418 717.101 145.553V159.559C713.815 161.461 708.628 163.19 702.576 163.19C687.015 163.19 680.617 155.928 680.617 139.156V138.291C674.566 154.026 660.214 163.363 642.924 163.363C623.385 163.363 612.492 154.026 612.492 139.156ZM681.136 116.332V109.243C678.197 113.22 671.972 115.64 659.177 118.407C641.886 122.211 633.587 125.669 633.587 135.698C633.587 143.305 639.466 147.628 650.877 147.628C667.822 147.628 680.79 132.585 681.136 116.332Z" fill="currentColor"/>
<path d="M511.943 144.343L527.159 129.992C535.112 140.539 544.968 146.072 559.319 146.072C572.979 146.072 578.685 139.502 578.685 132.585C578.685 122.557 563.815 121.692 546.005 118.753C528.369 115.986 515.574 110.107 515.574 92.8168C515.574 75.872 529.752 62.5582 553.959 62.5582C573.67 62.5582 587.503 68.6099 599.088 82.4424L583.007 96.102C575.572 85.3818 566.235 80.1946 552.749 80.1946C539.262 80.1946 533.902 86.2464 533.902 92.9897C533.902 101.808 545.141 103.537 561.567 105.958C580.414 108.724 597.359 113.22 597.359 132.585C597.359 150.395 583.007 163.536 558.801 163.536C536.841 163.536 521.453 156.273 511.943 144.343Z" fill="currentColor"/>
<path d="M400.243 139.156C400.243 128.09 405.084 121.692 412.519 117.024C419.435 112.701 428.426 110.28 445.025 106.822C462.316 103.191 468.195 100.252 468.195 92.9897C468.195 85.7276 462.835 79.503 448.311 79.503C434.132 79.503 425.833 86.5921 421.337 99.2143L402.49 93.1626C410.617 73.1054 427.735 62.9039 449.175 62.9039C473.382 62.9039 488.252 74.8345 488.252 97.4852V134.141C488.252 143.997 491.364 146.936 497.935 146.936C500.528 146.936 502.776 146.418 504.851 145.553V159.559C501.566 161.461 496.379 163.19 490.327 163.19C474.765 163.19 468.368 155.928 468.368 139.156V138.291C462.316 154.026 447.965 163.363 430.674 163.363C411.136 163.363 400.243 154.026 400.243 139.156ZM468.887 116.332V109.243C465.947 113.22 459.723 115.64 446.927 118.407C429.637 122.211 421.337 125.669 421.337 135.698C421.337 143.305 427.216 147.628 438.628 147.628C455.573 147.628 468.541 132.585 468.887 116.332Z" fill="currentColor"/>
<path d="M280 161.634V35.4119H338.269C368.355 35.4119 380.977 47.8611 380.977 67.2267C380.977 82.6153 371.467 93.3355 354.35 96.4478C372.851 98.8685 384.435 109.07 384.435 127.398C384.435 150.222 367.663 161.634 337.405 161.634H280ZM333.601 53.74H301.094V90.2232H332.736C352.102 90.2232 360.747 82.6153 360.747 71.2035C360.747 60.6562 353.831 53.74 333.601 53.74ZM334.984 105.439H301.094V143.133H335.157C357.635 143.133 363.859 134.314 363.859 123.075C363.859 111.318 355.214 105.439 334.984 105.439Z" fill="currentColor"/>
</svg>
